{
  "asset": {
    "version": "2.0",
    "generator": "Bunbun Milestone 3 fixture"
  },
  "extensionsUsed": ["KHR_materials_unlit"],
  "scene": 0,
  "scenes": [
    {
      "name": "park_small",
      "nodes": [0]
    }
  ],
  "nodes": [
    {
      "name": "park_fixture_root",
      "children": [1, 2, 3, 4, 5, 6, 7, 8, 9, 10, 11, 12, 13, 14, 15]
    },
    {
      "name": "walkable_ground",
      "mesh": 0,
      "translation": [0, -0.15, 0],
      "scale": [10, 0.2, 7]
    },
    {
      "name": "park_path",
      "mesh": 1,
      "translation": [0, -0.02, 0],
      "scale": [1.45, 0.08, 7.05]
    },
    {
      "name": "tree_left_trunk",
      "mesh": 2,
      "translation": [-4.45, 0.75, -2.3],
      "scale": [0.45, 1.5, 0.45]
    },
    {
      "name": "tree_left_crown",
      "mesh": 3,
      "translation": [-4.45, 2.05, -2.3],
      "scale": [1.65, 1.3, 1.65]
    },
    {
      "name": "tree_right_trunk",
      "mesh": 2,
      "translation": [4.45, 0.75, 2.2],
      "scale": [0.45, 1.5, 0.45]
    },
    {
      "name": "tree_right_crown",
      "mesh": 3,
      "translation": [4.45, 2.05, 2.2],
      "scale": [1.65, 1.3, 1.65]
    },
    {
      "name": "bench_seat",
      "mesh": 4,
      "translation": [-3.35, 0.55, 2.55],
      "scale": [2.1, 0.18, 0.65]
    },
    {
      "name": "bench_back",
      "mesh": 4,
      "translation": [-3.35, 1.05, 2.82],
      "scale": [2.1, 0.8, 0.18]
    },
    {
      "name": "bench_leg_left",
      "mesh": 2,
      "translation": [-4, 0.25, 2.55],
      "scale": [0.18, 0.5, 0.18]
    },
    {
      "name": "bench_leg_right",
      "mesh": 2,
      "translation": [-2.7, 0.25, 2.55],
      "scale": [0.18, 0.5, 0.18]
    },
    {
      "name": "flower_bed_left",
      "mesh": 5,
      "translation": [-4.45, 0.08, 0.25],
      "scale": [0.8, 0.16, 2.1]
    },
    {
      "name": "flower_bed_right",
      "mesh": 5,
      "translation": [4.45, 0.08, -0.2],
      "scale": [0.8, 0.16, 2.1]
    },
    {
      "name": "stone_left",
      "mesh": 6,
      "translation": [-4.55, 0.18, 3],
      "scale": [0.65, 0.36, 0.6]
    },
    {
      "name": "stone_right",
      "mesh": 6,
      "translation": [4.45, 0.18, -3],
      "scale": [0.7, 0.36, 0.55]
    },
    {
      "name": "park_sign",
      "mesh": 4,
      "translation": [3.8, 0.9, -2.9],
      "scale": [1.35, 1.4, 0.16]
    }
  ],
  "meshes": [
    {
      "name": "grass_cube",
      "primitives": [
        { "attributes": { "POSITION": 0 }, "indices": 1, "material": 0 }
      ]
    },
    {
      "name": "path_cube",
      "primitives": [
        { "attributes": { "POSITION": 0 }, "indices": 1, "material": 1 }
      ]
    },
    {
      "name": "trunk_cube",
      "primitives": [
        { "attributes": { "POSITION": 0 }, "indices": 1, "material": 2 }
      ]
    },
    {
      "name": "leaf_cube",
      "primitives": [
        { "attributes": { "POSITION": 0 }, "indices": 1, "material": 3 }
      ]
    },
    {
      "name": "wood_cube",
      "primitives": [
        { "attributes": { "POSITION": 0 }, "indices": 1, "material": 4 }
      ]
    },
    {
      "name": "flower_cube",
      "primitives": [
        { "attributes": { "POSITION": 0 }, "indices": 1, "material": 5 }
      ]
    },
    {
      "name": "stone_cube",
      "primitives": [
        { "attributes": { "POSITION": 0 }, "indices": 1, "material": 6 }
      ]
    }
  ],
  "materials": [
    {
      "name": "grass",
      "pbrMetallicRoughness": {
        "baseColorFactor": [0.47, 0.67, 0.4, 1],
        "metallicFactor": 0,
        "roughnessFactor": 1
      },
      "extensions": { "KHR_materials_unlit": {} }
    },
    {
      "name": "path",
      "pbrMetallicRoughness": {
        "baseColorFactor": [0.87, 0.78, 0.63, 1],
        "metallicFactor": 0,
        "roughnessFactor": 1
      },
      "extensions": { "KHR_materials_unlit": {} }
    },
    {
      "name": "trunk",
      "pbrMetallicRoughness": {
        "baseColorFactor": [0.38, 0.23, 0.14, 1],
        "metallicFactor": 0,
        "roughnessFactor": 1
      },
      "extensions": { "KHR_materials_unlit": {} }
    },
    {
      "name": "leaves",
      "pbrMetallicRoughness": {
        "baseColorFactor": [0.22, 0.5, 0.29, 1],
        "metallicFactor": 0,
        "roughnessFactor": 1
      },
      "extensions": { "KHR_materials_unlit": {} }
    },
    {
      "name": "wood",
      "pbrMetallicRoughness": {
        "baseColorFactor": [0.56, 0.31, 0.17, 1],
        "metallicFactor": 0,
        "roughnessFactor": 1
      },
      "extensions": { "KHR_materials_unlit": {} }
    },
    {
      "name": "flowers",
      "pbrMetallicRoughness": {
        "baseColorFactor": [0.77, 0.32, 0.42, 1],
        "metallicFactor": 0,
        "roughnessFactor": 1
      },
      "extensions": { "KHR_materials_unlit": {} }
    },
    {
      "name": "stone",
      "pbrMetallicRoughness": {
        "baseColorFactor": [0.55, 0.58, 0.56, 1],
        "metallicFactor": 0,
        "roughnessFactor": 1
      },
      "extensions": { "KHR_materials_unlit": {} }
    }
  ],
  "buffers": [
    {
      "uri": "data:application/octet-stream;base64,",
      "byteLength": 168
    }
  ],
  "bufferViews": [
    { "buffer": 0, "byteOffset": 0, "byteLength": 96, "target": 34962 },
    { "buffer": 0, "byteOffset": 96, "byteLength": 72, "target": 34963 }
  ],
  "accessors": [
    {
      "bufferView": 0,
      "byteOffset": 0,
      "componentType": 5126,
      "count": 8,
      "type": "VEC3",
      "min": [-0.5, -0.5, -0.5],
      "max": [0.5, 0.5, 0.5]
    },
    {
      "bufferView": 1,
      "byteOffset": 0,
      "componentType": 5123,
      "count": 36,
      "type": "SCALAR"
    }
  ]
}
